<?xml version="1.0" encoding="UTF-8"?>
<svg width="24px" height="23px" viewBox="0 0 24 23" version="1.1" xmlns="http://www.w3.org/2000/svg" xmlns:xlink="http://www.w3.org/1999/xlink">
    <!-- Generator: Sketch 50.2 (55047) - http://www.bohemiancoding.com/sketch -->
    <title>people</title>
    <desc>Created with Sketch.</desc>
    <defs></defs>
    <g id="Page-1" stroke="none" stroke-width="1" fill="none" fill-rule="evenodd">
        <g id="ENS-Domains-V3" transform="translate(-576.000000, -6415.000000)" fill="#000000">
            <g id="Managing-ENS-Roots" transform="translate(-3.000000, 6050.000000)">
                <g id="people" transform="translate(579.000000, 365.000000)">
                    <path d="M15,15 L9,15 C7.35,15 6,16.44 6,18.2 L6,23 L18,23 L18,18.2 C18,16.44 16.65,15 15,15" id="Fill-1"></path>
                    <path d="M18,0 C19.65625,0 21,1.34375 21,3 C21,4.65625 19.65625,6 18,6 C16.34375,6 15,4.65625 15,3 C15,1.34375 16.34375,0 18,0" id="Fill-3"></path>
                    <path d="M6,0 C7.65625,0 9,1.34375 9,3 C9,4.65625 7.65625,6 6,6 C4.34375,6 3,4.65625 3,3 C3,1.34375 4.34375,0 6,0" id="Fill-5"></path>
                    <path d="M12,8 C13.65625,8 15,9.34375 15,11 C15,12.65625 13.65625,14 12,14 C10.34375,14 9,12.65625 9,11 C9,9.34375 10.34375,8 12,8" id="Fill-7"></path>
                    <path d="M20.8846341,8 L16,8 C16.6217751,8.90933333 16.9904267,10.0093333 16.9904267,11.2 C16.9904267,12.1773333 16.7230245,13.0866667 16.2920656,13.888 C17.4434529,14.2626667 18.4364757,15.0026667 19.116664,16 L24,16 L24,11.2 C24,9.44 22.5980853,8 20.8846341,8" id="Fill-9"></path>
                    <path d="M7.01071081,11.2 C7.01071081,10.0093333 7.38201883,8.90933333 8,8 L3.11587147,8 C1.40214216,8 0,9.44 0,11.2 L0,16 L4.88412853,16 C5.56442713,15.0026667 6.55761117,14.2626667 7.70918533,13.888 C7.27685816,13.0866667 7.01071081,12.1773333 7.01071081,11.2" id="Fill-11"></path>
                </g>
            </g>
        </g>
    </g>
</svg>