<svg width="125" height="145" xmlns="http://www.w3.org/2000/svg"><defs><linearGradient x1="120.303%" y1="119.82%" x2="-33.984%" y2="-35.097%" id="a"><stop stop-color="#5040FF" offset="0%"/><stop stop-color="#52E4FF" offset="100%"/></linearGradient><linearGradient x1="566.797%" y1="2326.953%" x2="566.797%" y2="-1721.875%" id="b"><stop stop-color="#5040FF" offset="0%"/><stop stop-color="#52E4FF" offset="100%"/></linearGradient><linearGradient x1="12.337%" y1="-9.644%" x2="94.941%" y2="95.881%" id="c"><stop stop-color="#52E5FF" offset="0%"/><stop stop-color="#5041FF" offset="100%"/></linearGradient></defs><g fill="none" fill-rule="evenodd"><g stroke-linecap="round" stroke-linejoin="round" stroke-width="3.15"><path d="M45.923 65.89H12.642V0h33.281c3.064 0 5.547 2.565 5.547 5.73v54.43c0 3.164-2.483 5.73-5.547 5.73zM11.739 65.89H8.256c-2.565 0-4.644-2.566-4.644-5.73V5.73C3.612 2.565 5.692 0 8.256 0h3.483" stroke="url(#a)" transform="translate(33.604 41.812)"/><path d="M0 16.247h5.418M0 32.494h5.418M0 48.74h5.418M20.769 23.468h22.574" stroke="url(#b)" transform="translate(33.604 41.812)"/><path d="M20.769 32.494h22.574M20.769 41.52h22.574" stroke="url(#a)" transform="translate(33.604 41.812)"/></g><path stroke="url(#c)" stroke-width="3.6" d="M60.215 0l60.214 34.75v69.5L60.215 139 0 104.25v-69.5z" transform="translate(2 3)"/></g></svg>