<svg width="150" height="150" xmlns="http://www.w3.org/2000/svg"><defs><linearGradient x1="31.306%" y1="-14.643%" x2="86.617%" y2="108.867%" id="a"><stop stop-color="#52E5FF" offset="0%"/><stop stop-color="#5140FF" offset="100%"/></linearGradient><linearGradient x1="0%" y1="-70.167%" x2="123.793%" y2="238.873%" id="b"><stop stop-color="#52E5FF" offset="0%"/><stop stop-color="#513FFF" offset="100%"/></linearGradient><linearGradient x1="158.469%" y1="164.888%" x2="0%" y2="0%" id="c"><stop stop-color="#5143FF" offset="0%"/><stop stop-color="#52D8FF" offset="100%"/></linearGradient></defs><g transform="translate(2 2)" fill="none" fill-rule="evenodd"><circle stroke="url(#a)" stroke-width="4" cx="73" cy="73" r="73"/><g transform="translate(32 36)" fill="url(#b)" stroke="url(#c)" stroke-width=".5"><path d="M32.619 18.542h16.762V2.634H32.619v15.908zm-1.31 2.634h8.512V35h2.62V21.176h8.25c.722 0 1.309-.59 1.309-1.317V1.317C52 .59 51.413 0 50.69 0H31.31C30.586 0 30 .59 30 1.317V19.86c0 .727.586 1.317 1.31 1.317zM32.619 67.273h16.762v-16.47H32.619v16.47zM50.69 48.076h-8.38V43h-2.62v5.076h-8.38c-.724 0-1.31.61-1.31 1.364v19.196c0 .753.586 1.364 1.31 1.364h19.38c.723 0 1.31-.61 1.31-1.364V49.44c0-.753-.587-1.364-1.31-1.364z"/><path d="M60.953 67.233h17.338v-16.71H60.953v16.71zm-58.244 0h17.338v-16.71H2.709v16.71zm76.936-19.478h-8.668v-8.371c0-.764-.607-1.384-1.355-1.384H10.836c-.749 0-1.354.62-1.354 1.384v8.371H1.355c-.75 0-1.355.62-1.355 1.384v19.477C0 69.38.606 70 1.355 70H21.4c.748 0 1.355-.62 1.355-1.384V49.14c0-.764-.607-1.384-1.355-1.384h-9.21v-6.988h56.077v6.988h-8.67c-.748 0-1.354.62-1.354 1.384v19.477c0 .764.606 1.384 1.355 1.384h20.046c.748 0 1.355-.62 1.355-1.384V49.14c0-.764-.607-1.384-1.355-1.384z"/></g></g></svg>