<svg width="138" height="160" xmlns="http://www.w3.org/2000/svg"><defs><linearGradient x1="0%" y1="-41.19%" y2="129.709%" id="a"><stop stop-color="#52E5FF" offset="0%"/><stop stop-color="#5041FF" offset="100%"/></linearGradient><linearGradient x1="50%" y1="-1090.885%" x2="50%" y2="1290.885%" id="b"><stop stop-color="#52E5FF" offset="0%"/><stop stop-color="#5041FF" offset="100%"/></linearGradient><linearGradient x1="30.912%" y1="-15.973%" x2="75.183%" y2="105.332%" id="c"><stop stop-color="#52E3FF" offset="0%"/><stop stop-color="#5144FF" offset="100%"/></linearGradient></defs><g fill="none" fill-rule="evenodd"><path d="M52.71 65.597v5.124H3.29V3.193h49.42v37.863L56 37.82V1.618C56 .725 55.263 0 54.355 0H1.601C.709.024 0 .741 0 1.618v70.764C0 73.275.737 74 1.645 74h52.71c.908 0 1.645-.725 1.645-1.618V62.36l-3.29 3.236z" fill="url(#a)" transform="translate(39 46)"/><path d="M45.709 54.087l-.307 4.611 4.733-.298 26.91-26.232-4.372-4.26-26.964 26.179zM43.643 62c-.905.002-1.64-.711-1.643-1.594 0-.037.001-.074.003-.11l.46-7.019a1.58 1.58 0 0 1 .48-1.065L71.46 24.467a1.67 1.67 0 0 1 2.317 0l6.743 6.572c.64.624.64 1.634 0 2.258L52.015 61.084c-.29.284-.68.452-1.093.469L43.72 62h-.076z" fill="url(#a)" transform="translate(39 46)"/><path d="M45.442 19H21.558c-.86 0-1.558-.672-1.558-1.5s.698-1.5 1.558-1.5h23.884c.86 0 1.558.672 1.558 1.5s-.698 1.5-1.558 1.5M45.442 34H21.558c-.86 0-1.558-.672-1.558-1.5s.698-1.5 1.558-1.5h23.884c.86 0 1.558.672 1.558 1.5s-.698 1.5-1.558 1.5M36.313 50H21.687C20.756 50 20 49.328 20 48.5s.756-1.5 1.688-1.5h14.625c.931 0 1.687.672 1.687 1.5s-.756 1.5-1.688 1.5" fill="url(#b)" transform="translate(39 46)"/><path d="M12.355 19a1.615 1.615 0 0 1-1.062-.453l-2.96-2.876a1.516 1.516 0 0 1 .284-2.168 1.63 1.63 0 0 1 1.912-.027l1.826 1.793 3.968-3.854a1.625 1.625 0 0 1 2.25.077c.57.594.57 1.514 0 2.108l-5.083 4.936c-.3.297-.708.464-1.135.464M12.355 34a1.615 1.615 0 0 1-1.062-.453l-2.96-2.876a1.516 1.516 0 0 1 .284-2.168 1.63 1.63 0 0 1 1.912-.027l1.826 1.793 3.968-3.854a1.625 1.625 0 0 1 2.25.077c.57.594.57 1.514 0 2.108l-5.083 4.936c-.3.297-.708.464-1.135.464M12.355 50a1.615 1.615 0 0 1-1.062-.453l-2.96-2.876a1.516 1.516 0 0 1 .284-2.168 1.63 1.63 0 0 1 1.912-.027l1.826 1.793 3.968-3.854a1.625 1.625 0 0 1 2.25.077c.57.594.57 1.514 0 2.108l-5.083 4.936c-.3.297-.708.464-1.135.464" fill="url(#a)" transform="translate(39 46)"/><path stroke="url(#c)" stroke-width="4" d="M66.684 0l66.684 38.5v77L66.684 154 0 115.5v-77z" transform="translate(2 3)"/></g></svg>