<svg width="150" height="150" xmlns="http://www.w3.org/2000/svg" xmlns:xlink="http://www.w3.org/1999/xlink"><defs><linearGradient x1="26.207%" y1="-5.228%" x2="82.173%" y2="103.668%" id="a"><stop stop-color="#52D9FF" offset="0%"/><stop stop-color="#5049FF" offset="100%"/></linearGradient><path id="b" d="M0 .062h71.47v69.831H0z"/><linearGradient x1="50%" y1="-41.662%" x2="50%" y2="123.524%" id="c"><stop stop-color="#52E5FF" offset="0%"/><stop stop-color="#5145FF" offset="100%"/></linearGradient></defs><g transform="translate(2 2)" fill="none" fill-rule="evenodd"><circle stroke="url(#a)" stroke-width="4" cx="73" cy="73" r="73"/><g transform="translate(39 36)"><mask id="d" fill="#fff"><use xlink:href="#b"/></mask><path d="M49.68 41.951a2.616 2.616 0 0 0-2.615 2.618 2.616 2.616 0 1 0 5.23 0 2.616 2.616 0 0 0-2.615-2.618zm-7.844 11.342h26.147V35.844H41.836v17.449zM57.306.076c-.12.014-.239.042-.354.081L1.171 19.351A1.745 1.745 0 0 0 0 21.013v47.11a1.744 1.744 0 1 0 3.485.05V22.758h61.011v9.597H40.093a1.923 1.923 0 0 0-.164 0 1.745 1.745 0 0 0-1.58 1.744v20.939c0 .963.78 1.744 1.744 1.744h24.404v9.597H8.716a1.744 1.744 0 0 0-.05 3.49H66.24c.963 0 1.743-.782 1.743-1.745V56.782h1.743c.963 0 1.744-.78 1.744-1.744V34.099c0-.963-.78-1.744-1.744-1.744h-1.743V21.013c0-.964-.78-1.745-1.743-1.745H12.12L55.783 4.247v9.787a1.743 1.743 0 1 0 3.486.05V1.821A1.745 1.745 0 0 0 57.306.076z" fill="url(#c)" mask="url(#d)"/></g><path d="M25.313 41H10.688C9.755 41 9 40.328 9 39.5s.756-1.5 1.688-1.5h14.624c.932 0 1.688.672 1.688 1.5s-.756 1.5-1.688 1.5M25.313 50H10.688C9.755 50 9 49.328 9 48.5s.756-1.5 1.688-1.5h14.624c.932 0 1.688.672 1.688 1.5s-.756 1.5-1.688 1.5" fill="url(#c)" transform="translate(39 36)"/></g></svg>