<svg width="11" height="9" xmlns="http://www.w3.org/2000/svg" xmlns:xlink="http://www.w3.org/1999/xlink"><defs><path id="a" d="M0 0h11v9H0z"/></defs><g fill="none" fill-rule="evenodd"><mask id="b" fill="#fff"><use xlink:href="#a"/></mask><path d="M11 7.677v1.315H7.07V7.673h.797V1.831a.311.311 0 0 0-.072.144c-.61 2.279-1.222 4.557-1.828 6.838-.036.136-.084.191-.23.186a14.037 14.037 0 0 0-1.1 0c-.172.008-.23-.057-.272-.221-.594-2.272-1.194-4.541-1.794-6.811-.013-.052-.033-.102-.05-.153l-.036.01v5.861h.803v1.307H0V7.677c.126 0 .252.004.377.002.267-.005.45-.195.45-.468V1.82c0-.285-.193-.492-.467-.501-.12-.005-.24-.003-.36-.004V0h4.125l1.35 5.2a.29.29 0 0 0 .091-.154c.311-1.185.623-2.37.932-3.557.13-.495.252-.993.377-1.489H11v1.315c-.126.001-.252-.001-.377.004a.471.471 0 0 0-.45.482V7.23c0 .252.186.443.432.448.132.003.263 0 .395-.001" fill="#2B2B2B" mask="url(#b)"/></g></svg>