<?xml version="1.0" encoding="UTF-8"?>
<svg width="29px" height="22px" viewBox="0 0 29 22" version="1.1" xmlns="http://www.w3.org/2000/svg" xmlns:xlink="http://www.w3.org/1999/xlink">
    <!-- Generator: Sketch 50.2 (55047) - http://www.bohemiancoding.com/sketch -->
    <title>Desktop</title>
    <desc>Created with Sketch.</desc>
    <defs></defs>
    <g id="Page-1" stroke="none" stroke-width="1" fill="none" fill-rule="evenodd">
        <g id="ENS-Domains-V3" transform="translate(-597.000000, -4370.000000)">
            <g id="Supported-Apps" transform="translate(0.000000, 3918.000000)">
                <g id="Desktop-Wallets" transform="translate(95.000000, 444.000000)">
                    <g id="Desktop" transform="translate(503.000000, 9.000000)">
                        <path d="M26.6458,18.8012 C26.6458,18.3312 26.2648,17.9502 25.7948,17.9502 L1.2038,17.9502 C0.7338,17.9502 0.3528,18.3312 0.3528,18.8012 C0.3528,19.2712 0.7338,19.6522 1.2038,19.6522 L25.7948,19.6522 C26.2648,19.6522 26.6458,19.2712 26.6458,18.8012 Z M24.4258,14.4592 C24.4258,14.9782 24.0048,15.3992 23.4858,15.3992 L3.5138,15.3992 C2.9938,15.3992 2.5738,14.9782 2.5738,14.4592 L2.5738,1.1532 C2.5738,0.6342 2.9938,0.2132 3.5138,0.2132 L23.4858,0.2132 C24.0048,0.2132 24.4258,0.6342 24.4258,1.1532 L24.4258,14.4592 Z" id="Stroke-13" stroke="#2B2B2B" stroke-width="1.134"></path>
                        <path d="M26.6458,18.8012 C26.6458,18.3312 26.2648,17.9502 25.7948,17.9502 L1.2038,17.9502 C0.7338,17.9502 0.3528,18.3312 0.3528,18.8012 C0.3528,19.2712 0.7338,19.6522 1.2038,19.6522 L25.7948,19.6522 C26.2648,19.6522 26.6458,19.2712 26.6458,18.8012 Z M24.4258,14.4592 C24.4258,14.9782 24.0048,15.3992 23.4858,15.3992 L3.5138,15.3992 C2.9938,15.3992 2.5738,14.9782 2.5738,14.4592 L2.5738,1.1532 C2.5738,0.6342 2.9938,0.2132 3.5138,0.2132 L23.4858,0.2132 C24.0048,0.2132 24.4258,0.6342 24.4258,1.1532 L24.4258,14.4592 Z" id="Fill-11" fill="#2B2B2B"></path>
                    </g>
                </g>
            </g>
        </g>
    </g>
</svg>