<svg width="13" height="13" xmlns="http://www.w3.org/2000/svg" xmlns:xlink="http://www.w3.org/1999/xlink"><defs><path id="a" d="M0 0h13v13H0z"/></defs><g fill="none" fill-rule="evenodd"><mask id="b" fill="#fff"><use xlink:href="#a"/></mask><path d="M6.5 0C2.91 0 0 2.984 0 6.665c0 2.944 1.862 5.442 4.445 6.324.325.06.444-.145.444-.322 0-.158-.006-.577-.009-1.133-1.808.402-2.19-.894-2.19-.894-.295-.77-.721-.975-.721-.975-.59-.413.045-.405.045-.405.652.047.995.687.995.687.58 1.018 1.522.724 1.892.554.059-.43.227-.724.412-.891-1.443-.168-2.96-.74-2.96-3.294 0-.727.253-1.322.669-1.788-.067-.169-.29-.846.063-1.764 0 0 .546-.18 1.788.683A6.065 6.065 0 0 1 6.5 3.223a6.074 6.074 0 0 1 1.627.224c1.241-.862 1.786-.683 1.786-.683.355.918.132 1.595.065 1.764.416.466.668 1.06.668 1.788 0 2.56-1.52 3.124-2.968 3.289.234.205.441.612.441 1.234 0 .89-.008 1.61-.008 1.828 0 .178.117.386.447.32C11.14 12.105 13 9.609 13 6.666 13 2.984 10.09 0 6.5 0" fill="#2B2B2B" mask="url(#b)"/></g></svg>