<svg id="Layer_1" data-name="Layer 1" xmlns="http://www.w3.org/2000/svg" xmlns:xlink="http://www.w3.org/1999/xlink" viewBox="0 0 586.06 546.56"><defs><style>.cls-1{fill:#fff;}.cls-2{fill:url(#linear-gradient);}.cls-3{fill:url(#linear-gradient-2);}</style><linearGradient id="linear-gradient" x1="293.89" y1="31.5" x2="162.99" y2="173.35" gradientUnits="userSpaceOnUse"><stop offset="0.58" stop-color="#fff" stop-opacity="0.7"/><stop offset="0.66" stop-color="#fff" stop-opacity="0.6"/><stop offset="0.82" stop-color="#fff" stop-opacity="0.35"/><stop offset="0.91" stop-color="#fff" stop-opacity="0.2"/></linearGradient><linearGradient id="linear-gradient-2" x1="296.28" y1="372.86" x2="427.17" y2="231.01" xlink:href="#linear-gradient"/></defs><title>ENS_Logo_600x600</title><path class="cls-1" d="M7.88,491.32V423.06a.35.35,0,0,1,.35-.35H51.6a.35.35,0,0,1,.35.35v8.7a.35.35,0,0,1-.35.35H18.34v20.14H46.66a.35.35,0,0,1,.35.35v8.6a.35.35,0,0,1-.35.35H18.34v20.73H51.6a.35.35,0,0,1,.35.35v8.7a.35.35,0,0,1-.35.35H8.23A.35.35,0,0,1,7.88,491.32Z" transform="translate(-7.88 -27.34)"/><path class="cls-1" d="M103.17,432.11v59.22a.35.35,0,0,1-.35.35H93.05a.35.35,0,0,1-.35-.35V432.11H74.07a.35.35,0,0,1-.35-.35v-8.7a.35.35,0,0,1,.35-.35H121.8a.35.35,0,0,1,.35.35v8.7a.35.35,0,0,1-.35.35Z" transform="translate(-7.88 -27.34)"/><path class="cls-1" d="M226.82,491.32V423.06a.35.35,0,0,1,.35-.35h43.37a.35.35,0,0,1,.35.35v8.7a.35.35,0,0,1-.35.35H237.28v20.14H265.6a.35.35,0,0,1,.35.35v8.6a.35.35,0,0,1-.35.35H237.28v20.73h33.26a.35.35,0,0,1,.35.35v8.7a.35.35,0,0,1-.35.35H227.17A.35.35,0,0,1,226.82,491.32Z" transform="translate(-7.88 -27.34)"/><path class="cls-1" d="M184.8,491.36V461.58h-28v29.77a.35.35,0,0,1-.35.35H146.7a.35.35,0,0,1-.35-.35V423.09a.35.35,0,0,1,.35-.35h9.76a.35.35,0,0,1,.35.35v29.1h28v-29.1a.35.35,0,0,1,.35-.35h9.77a.35.35,0,0,1,.35.35v68.26a.35.35,0,0,1-.35.35h-9.77A.35.35,0,0,1,184.8,491.36Z" transform="translate(-7.88 -27.34)"/><path class="cls-1" d="M477.83,493.17a63.06,63.06,0,0,1-24.51-5.43.32.32,0,0,1-.18-.31V423.09a.35.35,0,0,1,.35-.35h9.76a.35.35,0,0,1,.35.35v56.65s5.18,2.47,14.24,2.47,14.33-2.47,14.33-2.47V423.09a.35.35,0,0,1,.35-.35h9.76a.35.35,0,0,1,.35.35v64.34a.32.32,0,0,1-.18.31A63.8,63.8,0,0,1,477.83,493.17Z" transform="translate(-7.88 -27.34)"/><path class="cls-1" d="M583.48,491.36V445.6L567.69,479a.35.35,0,0,1-.31.2h-7.31a.35.35,0,0,1-.31-.2L543.57,445.6v45.75a.35.35,0,0,1-.35.35h-9.76a.35.35,0,0,1-.35-.35V423.09a.35.35,0,0,1,.35-.35h9.89a.35.35,0,0,1,.31.2l20,42.71,19.67-42.7a.35.35,0,0,1,.32-.2h9.89a.35.35,0,0,1,.35.35v68.26a.35.35,0,0,1-.35.35h-9.76A.35.35,0,0,1,583.48,491.36Z" transform="translate(-7.88 -27.34)"/><path class="cls-1" d="M342,491.7h10.84a.35.35,0,0,0,.29-.54L334,462H345.5a.33.33,0,0,0,.29-.15,36.75,36.75,0,0,0,5.57-19c0-10.18-5.17-18.74-6-20a.33.33,0,0,0-.29-.16H300.64a.35.35,0,0,0-.35.35v68.26a.35.35,0,0,0,.35.35h9.76a.35.35,0,0,0,.35-.35V432.14h27.36s3.09,3.69,3.09,10.85-2.79,10.75-2.79,10.75H318.16a.35.35,0,0,0-.29.54l23.83,37.27A.35.35,0,0,0,342,491.7Z" transform="translate(-7.88 -27.34)"/><path class="cls-1" d="M426,482.31H392.71V461.58H421a.35.35,0,0,0,.35-.35v-8.6a.35.35,0,0,0-.35-.35H392.71V432.14H426a.35.35,0,0,0,.35-.35v-8.7a.35.35,0,0,0-.35-.35H382.6a.35.35,0,0,0-.35.35v68.26a.35.35,0,0,0,.35.35H426a.35.35,0,0,0,.35-.35v-8.7A.35.35,0,0,0,426,482.31Z" transform="translate(-7.88 -27.34)"/><path class="cls-1" d="M69.25,572.54H62.41a.34.34,0,0,1-.28-.15L42.68,542.78v29.43a.34.34,0,0,1-.34.34H34.76a.34.34,0,0,1-.34-.34V526.65a.34.34,0,0,1,.34-.34h6.84a.34.34,0,0,1,.28.15L61.32,556V526.65a.34.34,0,0,1,.34-.34h7.59a.34.34,0,0,1,.34.34v45.55A.34.34,0,0,1,69.25,572.54Z" transform="translate(-7.88 -27.34)"/><path class="cls-1" d="M122.86,572.54h-8.09a.34.34,0,0,1-.32-.23l-3-8.76H94.84l-3,8.76a.34.34,0,0,1-.32.23H83.43a.34.34,0,0,1-.32-.45l16.7-45.55a.34.34,0,0,1,.32-.22h6a.34.34,0,0,1,.32.22l16.7,45.55A.34.34,0,0,1,122.86,572.54ZM97.37,556.3h11.7l-5.77-16.88Z" transform="translate(-7.88 -27.34)"/><path class="cls-1" d="M177.33,572.54h-7.59a.34.34,0,0,1-.34-.34v-27l-9,19.07a.34.34,0,0,1-.31.19h-5.53a.34.34,0,0,1-.3-.19L145,545.1v27.11a.34.34,0,0,1-.34.34h-7.59a.34.34,0,0,1-.34-.34V526.65a.34.34,0,0,1,.34-.34h7.44a.34.34,0,0,1,.31.19l12.5,26.64,12.27-26.64a.34.34,0,0,1,.31-.2h7.44a.34.34,0,0,1,.34.34v45.55A.34.34,0,0,1,177.33,572.54Z" transform="translate(-7.88 -27.34)"/><path class="cls-1" d="M226.37,572.54H197a.34.34,0,0,1-.34-.34V526.65a.34.34,0,0,1,.34-.34h29.4a.34.34,0,0,1,.34.34v6.89a.34.34,0,0,1-.34.34H204.9v11.6h18.27a.34.34,0,0,1,.34.34v6.83a.34.34,0,0,1-.34.34H204.9v12h21.48a.34.34,0,0,1,.34.34v6.89A.34.34,0,0,1,226.37,572.54Z" transform="translate(-7.88 -27.34)"/><path class="cls-1" d="M350,572.54h-29.4a.34.34,0,0,1-.34-.34V526.65a.34.34,0,0,1,.34-.34H350a.34.34,0,0,1,.34.34v6.89a.34.34,0,0,1-.34.34H328.49v11.6h18.27a.34.34,0,0,1,.34.34v6.83a.34.34,0,0,1-.34.34H328.49v12H350a.34.34,0,0,1,.34.34v6.89A.34.34,0,0,1,350,572.54Z" transform="translate(-7.88 -27.34)"/><path class="cls-1" d="M434.69,572.54h-5.86a.34.34,0,0,1-.32-.23l-15-45.55a.34.34,0,0,1,.32-.44h7.89a.34.34,0,0,1,.32.24l9.69,30.62,9.7-30.62a.34.34,0,0,1,.32-.24h8a.34.34,0,0,1,.32.44L435,572.31A.34.34,0,0,1,434.69,572.54Z" transform="translate(-7.88 -27.34)"/><path class="cls-1" d="M471.4,572.54h-7.59a.34.34,0,0,1-.34-.34V526.65a.34.34,0,0,1,.34-.34h7.59a.34.34,0,0,1,.34.34v45.55A.34.34,0,0,1,471.4,572.54Z" transform="translate(-7.88 -27.34)"/><path class="cls-1" d="M567,572.54h-29.4a.34.34,0,0,1-.34-.34V526.65a.34.34,0,0,1,.34-.34H567a.34.34,0,0,1,.34.34v6.89a.34.34,0,0,1-.34.34H545.56v11.6h18.27a.34.34,0,0,1,.34.34v6.83a.34.34,0,0,1-.34.34H545.56v12H567a.34.34,0,0,1,.34.34v6.89A.34.34,0,0,1,567,572.54Z" transform="translate(-7.88 -27.34)"/><path class="cls-1" d="M519.71,572.62H493.59a.31.31,0,0,1-.3-.19c-.56-1.33-3.79-9.65-3.79-23s3.23-21.62,3.79-22.94a.31.31,0,0,1,.3-.19h26.12a.34.34,0,0,1,.34.34v7.05a.34.34,0,0,1-.34.34H499.17a63.66,63.66,0,0,0-1.62,15.4,65.28,65.28,0,0,0,1.62,15.51h20.54a.34.34,0,0,1,.34.34v7.05A.34.34,0,0,1,519.71,572.62Z" transform="translate(-7.88 -27.34)"/><path class="cls-1" d="M405.4,572.61H397a.34.34,0,0,1-.28-.16l-16.4-25.65a.34.34,0,0,1,.28-.52h11.82a11.71,11.71,0,0,0,1.58-6.34,11.06,11.06,0,0,0-1.76-6.4H375.58v38.73a.34.34,0,0,1-.34.34h-7.58a.34.34,0,0,1-.34-.34V526.54a.34.34,0,0,1,.34-.34H397.9l.09.13a27.6,27.6,0,0,1,4.08,13.55,27.16,27.16,0,0,1-3.81,13.27l-.09.13h-5.48Z" transform="translate(-7.88 -27.34)"/><path class="cls-1" d="M285,573.91a60.85,60.85,0,0,1-16-2.35.31.31,0,0,1-.22-.32v-8.12a.34.34,0,0,1,.34-.34H277v2.54a31.66,31.66,0,0,0,15.94,0v-9.41l-23.88-8.37a.34.34,0,0,1-.23-.32v-19.3a.31.31,0,0,1,.22-.32A60.06,60.06,0,0,1,285,525.28a60.8,60.8,0,0,1,16,2.35.31.31,0,0,1,.22.32v8.12a.34.34,0,0,1-.34.34H293v-2.54a31.67,31.67,0,0,0-15.93,0l0,8.83L300.91,551a.34.34,0,0,1,.23.32v19.89a.31.31,0,0,1-.22.32A60.07,60.07,0,0,1,285,573.91Z" transform="translate(-7.88 -27.34)"/><path class="cls-2" d="M175.07,173.24c3.57,7.63,12.4,22.69,12.4,22.69L289.4,27.36,189.9,96.84c-7.78,5.82-11.66,10.54-14.16,15.57C162.18,139.71,171.49,165.61,175.07,173.24Z" transform="translate(-7.88 -27.34)"/><path class="cls-1" d="M139.34,222.64c2.63,33.1,19.44,62.87,43.11,80L289.28,377s-66.75-96.24-123.11-192a96.71,96.71,0,0,1-11.29-32.65,52.27,52.27,0,0,1,.12-15.67c-1.46,2.71-4.11,8.31-4.11,8.31-5.09,11.43-10.28,24.47-11.54,36.91C138.45,190.7,137.91,201.15,139.34,222.64Z" transform="translate(-7.88 -27.34)"/><path class="cls-3" d="M415.1,231.12c-3.57-7.63-12.4-22.69-12.4-22.69L300.76,377l99.51-69.48c7.78-5.82,11.66-10.54,14.16-15.57C428,264.65,418.67,238.75,415.1,231.12Z" transform="translate(-7.88 -27.34)"/><path class="cls-1" d="M450.83,181.72c-2.63-33.1-19.44-62.87-43.11-80L300.89,27.34s66.75,96.24,123.11,192A96.71,96.71,0,0,1,435.29,252a52.27,52.27,0,0,1-.12,15.67c1.46-2.71,4.11-8.31,4.11-8.31,5.09-11.43,10.28-24.47,11.54-36.91C451.72,213.66,452.26,203.22,450.83,181.72Z" transform="translate(-7.88 -27.34)"/></svg>