<svg id="Layer_1" data-name="Layer 1" xmlns="http://www.w3.org/2000/svg" viewBox="0 0 113.62 43.7"><defs><style>.cls-1{fill:#2b2b2b;}</style></defs><title>ENS_TypeLogo_Nav_114x75</title><path class="cls-1" d="M.23,59.08V17.2A.22.22,0,0,1,.44,17H27.05a.22.22,0,0,1,.22.22v5.33a.22.22,0,0,1-.22.22H6.65V35.11H24a.22.22,0,0,1,.22.22V40.6a.22.22,0,0,1-.22.22H6.65V53.53H27.05a.22.22,0,0,1,.22.22v5.33a.22.22,0,0,1-.22.22H.44A.22.22,0,0,1,.23,59.08Z" transform="translate(-0.23 -16.27)"/><path class="cls-1" d="M66.4,59.19,46.93,29.54V59.07a.22.22,0,0,1-.22.22h-6a.22.22,0,0,1-.22-.22V17.23a.22.22,0,0,1,.22-.22h5.55a.22.22,0,0,1,.18.1L65.93,46.7V17.23a.22.22,0,0,1,.22-.22h6a.22.22,0,0,1,.22.22V59.07a.22.22,0,0,1-.22.22H66.58A.22.22,0,0,1,66.4,59.19Z" transform="translate(-0.23 -16.27)"/><path class="cls-1" d="M92,51.17v2a40.79,40.79,0,0,0,7.82.92,40.27,40.27,0,0,0,7.73-.91V43.7L85.77,36.09a.22.22,0,0,1-.14-.2V18.48a.19.19,0,0,1,.14-.2,54.34,54.34,0,0,1,13.94-2,55.07,55.07,0,0,1,14,2,.19.19,0,0,1,.14.2v6.57a.22.22,0,0,1-.22.22h-5.89a.22.22,0,0,1-.22-.22v-2a40.85,40.85,0,0,0-7.82-.91,40.5,40.5,0,0,0-7.73.9L92,32l21.7,7.6a.22.22,0,0,1,.14.2V57.75a.19.19,0,0,1-.14.2,54.36,54.36,0,0,1-13.94,2,55.11,55.11,0,0,1-14-2,.19.19,0,0,1-.14-.2V51.17a.22.22,0,0,1,.22-.22h5.88A.22.22,0,0,1,92,51.17Z" transform="translate(-0.23 -16.27)"/></svg>