<svg id="Layer_1" data-name="Layer 1" xmlns="http://www.w3.org/2000/svg" xmlns:xlink="http://www.w3.org/1999/xlink" viewBox="0 0 588.11 566.59"><defs><style>.cls-1{fill:#fff;}.cls-2{fill:url(#linear-gradient);}.cls-3{fill:url(#linear-gradient-2);}</style><linearGradient id="linear-gradient" x1="299.89" y1="21.81" x2="161.25" y2="172.05" gradientUnits="userSpaceOnUse"><stop offset="0.58" stop-color="#fff" stop-opacity="0.7"/><stop offset="0.66" stop-color="#fff" stop-opacity="0.6"/><stop offset="0.82" stop-color="#fff" stop-opacity="0.35"/><stop offset="0.91" stop-color="#fff" stop-opacity="0.2"/></linearGradient><linearGradient id="linear-gradient-2" x1="302.42" y1="383.36" x2="441.05" y2="233.12" xlink:href="#linear-gradient"/></defs><title>ENS_Logo_Hero_Update</title><path class="cls-1" d="M7.5,501.65v-68.5a.35.35,0,0,1,.35-.35H51.37a.35.35,0,0,1,.35.35v8.73a.35.35,0,0,1-.35.35H18v20.22H46.41a.35.35,0,0,1,.35.35v8.63a.35.35,0,0,1-.35.35H18v20.8H51.37a.35.35,0,0,1,.35.35v8.73a.35.35,0,0,1-.35.35H7.85A.35.35,0,0,1,7.5,501.65Z" transform="translate(-7.5 -17.41)"/><path class="cls-1" d="M103.12,442.23v59.42a.35.35,0,0,1-.35.35H93a.35.35,0,0,1-.35-.35V442.23H73.92a.35.35,0,0,1-.35-.35v-8.73a.35.35,0,0,1,.35-.35h47.9a.35.35,0,0,1,.35.35v8.73a.35.35,0,0,1-.35.35Z" transform="translate(-7.5 -17.41)"/><path class="cls-1" d="M227.21,501.65v-68.5a.35.35,0,0,1,.35-.35h43.52a.35.35,0,0,1,.35.35v8.73a.35.35,0,0,1-.35.35H237.71v20.22h28.42a.35.35,0,0,1,.35.35v8.63a.35.35,0,0,1-.35.35H237.71v20.8h33.38a.35.35,0,0,1,.35.35v8.73a.35.35,0,0,1-.35.35H227.56A.35.35,0,0,1,227.21,501.65Z" transform="translate(-7.5 -17.41)"/><path class="cls-1" d="M185,501.69V471.81H157v29.88a.35.35,0,0,1-.35.35h-9.8a.35.35,0,0,1-.35-.35v-68.5a.35.35,0,0,1,.35-.35h9.8a.35.35,0,0,1,.35.35v29.2H185v-29.2a.35.35,0,0,1,.35-.35h9.8a.35.35,0,0,1,.35.35v68.5a.35.35,0,0,1-.35.35h-9.8A.35.35,0,0,1,185,501.69Z" transform="translate(-7.5 -17.41)"/><path class="cls-1" d="M479.1,503.5a63.28,63.28,0,0,1-24.6-5.45.32.32,0,0,1-.18-.31V433.19a.35.35,0,0,1,.35-.35h9.8a.35.35,0,0,1,.35.35V490s5.2,2.48,14.29,2.48S493.48,490,493.48,490V433.19a.35.35,0,0,1,.35-.35h9.8a.35.35,0,0,1,.35.35v64.56a.32.32,0,0,1-.19.31A64,64,0,0,1,479.1,503.5Z" transform="translate(-7.5 -17.41)"/><path class="cls-1" d="M585.11,501.69V455.77L569.27,489.3a.35.35,0,0,1-.32.2h-7.33a.35.35,0,0,1-.31-.2l-16.23-33.53v45.91a.35.35,0,0,1-.35.35h-9.8a.35.35,0,0,1-.35-.35v-68.5a.35.35,0,0,1,.35-.35h9.93a.35.35,0,0,1,.32.2l20.12,42.86L585,433a.35.35,0,0,1,.32-.2h9.92a.35.35,0,0,1,.35.35v68.5a.35.35,0,0,1-.35.35h-9.8A.35.35,0,0,1,585.11,501.69Z" transform="translate(-7.5 -17.41)"/><path class="cls-1" d="M342.79,502h10.88a.35.35,0,0,0,.29-.54l-19.21-29.22H346.3a.33.33,0,0,0,.29-.15,36.88,36.88,0,0,0,5.59-19.06c0-10.21-5.19-18.81-6-20.07a.34.34,0,0,0-.29-.16H301.29a.35.35,0,0,0-.35.35v68.5a.35.35,0,0,0,.35.35h9.8a.35.35,0,0,0,.35-.35V442.26h27.45s3.1,3.7,3.1,10.88-2.79,10.79-2.79,10.79H318.87a.35.35,0,0,0-.29.54l23.92,37.4A.35.35,0,0,0,342.79,502Z" transform="translate(-7.5 -17.41)"/><path class="cls-1" d="M427.06,492.61H393.68v-20.8H422.1a.35.35,0,0,0,.35-.35v-8.63a.35.35,0,0,0-.35-.35H393.68V442.26h33.38a.35.35,0,0,0,.35-.35v-8.73a.35.35,0,0,0-.35-.35H383.53a.35.35,0,0,0-.35.35v68.5a.35.35,0,0,0,.35.35h43.52a.35.35,0,0,0,.35-.35V493A.35.35,0,0,0,427.06,492.61Z" transform="translate(-7.5 -17.41)"/><path class="cls-1" d="M73.65,582.67H67a.33.33,0,0,1-.28-.15l-19-29v28.81a.33.33,0,0,1-.33.33H39.89a.33.33,0,0,1-.33-.33v-44.6a.33.33,0,0,1,.33-.33h6.69a.33.33,0,0,1,.28.15l19,28.93V537.74a.33.33,0,0,1,.33-.33h7.43a.33.33,0,0,1,.33.33v44.6A.33.33,0,0,1,73.65,582.67Z" transform="translate(-7.5 -17.41)"/><path class="cls-1" d="M126.14,582.67h-7.92a.33.33,0,0,1-.31-.22L115,573.87H98.71l-2.94,8.58a.33.33,0,0,1-.31.22H87.54a.33.33,0,0,1-.31-.44l16.35-44.6a.33.33,0,0,1,.31-.22h5.9a.33.33,0,0,1,.31.22l16.35,44.6A.33.33,0,0,1,126.14,582.67Zm-25-15.9h11.45L107,550.25Z" transform="translate(-7.5 -17.41)"/><path class="cls-1" d="M179.46,582.67H172a.33.33,0,0,1-.33-.33V555.87l-8.83,18.67a.33.33,0,0,1-.3.19h-5.41a.33.33,0,0,1-.3-.19l-9.08-18.74v26.54a.33.33,0,0,1-.33.33H140a.33.33,0,0,1-.33-.33v-44.6a.33.33,0,0,1,.33-.33h7.28a.33.33,0,0,1,.3.19l12.24,26.08,12-26.08a.33.33,0,0,1,.3-.19h7.29a.33.33,0,0,1,.33.33v44.6A.33.33,0,0,1,179.46,582.67Z" transform="translate(-7.5 -17.41)"/><path class="cls-1" d="M227.48,582.67H198.7a.33.33,0,0,1-.33-.33v-44.6a.33.33,0,0,1,.33-.33h28.78a.33.33,0,0,1,.33.33v6.75a.33.33,0,0,1-.33.33h-21v11.36h17.89a.33.33,0,0,1,.33.33v6.69a.33.33,0,0,1-.33.33H206.45v11.73h21a.33.33,0,0,1,.33.33v6.75A.33.33,0,0,1,227.48,582.67Z" transform="translate(-7.5 -17.41)"/><path class="cls-1" d="M348.48,582.67H319.7a.33.33,0,0,1-.33-.33v-44.6a.33.33,0,0,1,.33-.33h28.78a.33.33,0,0,1,.33.33v6.75a.33.33,0,0,1-.33.33h-21v11.36h17.89a.33.33,0,0,1,.33.33v6.69a.33.33,0,0,1-.33.33H327.45v11.73h21a.33.33,0,0,1,.33.33v6.75A.33.33,0,0,1,348.48,582.67Z" transform="translate(-7.5 -17.41)"/><path class="cls-1" d="M431.41,582.67h-5.73a.33.33,0,0,1-.31-.23l-14.66-44.6a.33.33,0,0,1,.31-.43h7.72a.33.33,0,0,1,.31.23l9.49,30,9.49-30a.33.33,0,0,1,.31-.23h7.84a.33.33,0,0,1,.31.43l-14.78,44.6A.33.33,0,0,1,431.41,582.67Z" transform="translate(-7.5 -17.41)"/><path class="cls-1" d="M467.35,582.67h-7.43a.33.33,0,0,1-.33-.33v-44.6a.33.33,0,0,1,.33-.33h7.43a.33.33,0,0,1,.33.33v44.6A.33.33,0,0,1,467.35,582.67Z" transform="translate(-7.5 -17.41)"/><path class="cls-1" d="M561,582.67H532.19a.33.33,0,0,1-.33-.33v-44.6a.33.33,0,0,1,.33-.33H561a.33.33,0,0,1,.33.33v6.75a.33.33,0,0,1-.33.33h-21v11.36h17.89a.33.33,0,0,1,.33.33v6.69a.33.33,0,0,1-.33.33H539.95v11.73h21a.33.33,0,0,1,.33.33v6.75A.33.33,0,0,1,561,582.67Z" transform="translate(-7.5 -17.41)"/><path class="cls-1" d="M514.65,582.74H489.08a.3.3,0,0,1-.3-.19c-.54-1.31-3.71-9.45-3.71-22.56s3.16-21.17,3.71-22.46a.3.3,0,0,1,.3-.18h25.57a.33.33,0,0,1,.33.33v6.9a.33.33,0,0,1-.33.33H494.54A62.32,62.32,0,0,0,493,560a63.9,63.9,0,0,0,1.58,15.18h20.11a.33.33,0,0,1,.33.33v6.9A.33.33,0,0,1,514.65,582.74Z" transform="translate(-7.5 -17.41)"/><path class="cls-1" d="M402.74,582.74h-8.21a.33.33,0,0,1-.28-.15l-16.06-25.11a.33.33,0,0,1,.28-.51H390a11.46,11.46,0,0,0,1.54-6.21,10.82,10.82,0,0,0-1.72-6.26H373.55v37.91a.33.33,0,0,1-.33.33h-7.42a.33.33,0,0,1-.33-.33V537.64a.33.33,0,0,1,.33-.33h29.6l.09.13a27,27,0,0,1,4,13.27,26.59,26.59,0,0,1-3.73,13l-.08.13h-5.36Z" transform="translate(-7.5 -17.41)"/><path class="cls-1" d="M284.91,584a59.57,59.57,0,0,1-15.62-2.3.31.31,0,0,1-.22-.31v-7.95a.33.33,0,0,1,.33-.33h7.66v2.48a31,31,0,0,0,15.6,0v-9.21l-23.37-8.19a.33.33,0,0,1-.22-.31V539a.31.31,0,0,1,.22-.31,58.8,58.8,0,0,1,15.55-2.3,59.52,59.52,0,0,1,15.61,2.3.31.31,0,0,1,.22.31V547a.33.33,0,0,1-.33.33h-7.66V544.8a31,31,0,0,0-15.6,0l0,8.65,23.34,8.18a.33.33,0,0,1,.22.31V581.4a.31.31,0,0,1-.22.31A58.81,58.81,0,0,1,284.91,584Z" transform="translate(-7.5 -17.41)"/><path class="cls-2" d="M174,171.94c3.79,8.08,13.13,24,13.13,24l108-178.54L189.75,91c-8.24,6.16-12.35,11.17-15,16.49C160.4,136.42,170.26,163.85,174,171.94Z" transform="translate(-7.5 -17.41)"/><path class="cls-1" d="M136.2,224.26c2.78,35.06,20.58,66.59,45.66,84.68L295,387.76s-70.7-101.93-130.39-203.36c-6.47-11-10.86-25.76-12-34.58a55.36,55.36,0,0,1,.13-16.59c-1.55,2.87-4.36,8.8-4.36,8.8-5.39,12.1-10.89,25.92-12.23,39.1C135.26,190.42,134.69,201.49,136.2,224.26Z" transform="translate(-7.5 -17.41)"/><path class="cls-3" d="M428.26,233.23c-3.79-8.08-13.13-24-13.13-24l-108,178.54,105.39-73.59c8.24-6.16,12.35-11.17,15-16.49C441.91,268.75,432,241.32,428.26,233.23Z" transform="translate(-7.5 -17.41)"/><path class="cls-1" d="M466.1,180.91c-2.78-35.06-20.58-66.59-45.66-84.68L307.3,17.41S378,119.34,437.69,220.78c6.47,11,10.86,25.76,12,34.58a55.36,55.36,0,0,1-.13,16.59c1.55-2.87,4.36-8.8,4.36-8.8,5.39-12.1,10.89-25.92,12.23-39.1C467,214.75,467.62,203.68,466.1,180.91Z" transform="translate(-7.5 -17.41)"/></svg>