<?xml version="1.0" encoding="UTF-8" standalone="no"?>
<svg width="12px" height="10px" viewBox="0 0 12 10" version="1.1" xmlns="http://www.w3.org/2000/svg" xmlns:xlink="http://www.w3.org/1999/xlink">
    <!-- Generator: Sketch 50.2 (55047) - http://www.bohemiancoding.com/sketch -->
    <title>twitter-logo-silhouette (1)</title>
    <desc>Created with Sketch.</desc>
    <defs></defs>
    <g id="Page-1" stroke="none" stroke-width="1" fill="none" fill-rule="evenodd">
        <g id="NEW---hovers-/-animation-/-icons" transform="translate(-229.000000, -3546.000000)" fill="#FFFFFF">
            <g id="Nav-Icons" transform="translate(177.000000, 3535.000000)">
                <g id="Twitter-Icon" transform="translate(42.000000, 1.000000)">
                    <path d="M22,11.1829198 C21.5603468,11.3829583 21.0841341,11.5214464 20.5863604,11.582035 C21.0953832,11.2694749 21.4834779,10.7741873 21.6700258,10.1836892 C21.193813,10.4731679 20.6669791,10.6837853 20.1026482,10.796307 C19.6564331,10.3077515 19.0152332,10 18.3084134,10 C16.950082,10 15.8476682,11.1309867 15.8476682,12.5245239 C15.8476682,12.7236007 15.8701664,12.9149837 15.9104757,13.0996345 C13.8631357,12.993845 12.0510898,11.9907675 10.8352472,10.4616272 C10.6224514,10.8338142 10.5015233,11.2694749 10.5015233,11.7320639 C10.5015233,12.6072322 10.9374268,13.3814195 11.5964378,13.8315061 C11.1933443,13.8209271 10.8164987,13.7045586 10.4837122,13.5160608 L10.4837122,13.5468359 C10.4837122,14.7711098 11.3330209,15.7924601 12.4569955,16.0261589 C12.2516991,16.0819388 12.0323412,16.1117523 11.8092337,16.1117523 C11.651746,16.1117523 11.498008,16.0973264 11.34427,16.067513 C11.6592454,17.0705905 12.5666745,17.7986151 13.6437778,17.8216965 C12.8010312,18.497788 11.7389266,18.8997884 10.5858917,18.8997884 C10.3880947,18.8997884 10.1940473,18.8882477 10,18.8661281 C11.0911648,19.5835738 12.3838763,20 13.7750176,20 C18.300914,20 20.7766581,16.1531064 20.7766581,12.8178496 L20.7691587,12.4908636 C21.2528709,12.1340642 21.6700258,11.6907098 22,11.1829198 Z" id="twitter-logo-silhouette-(1)"></path>
                </g>
            </g>
        </g>
    </g>
</svg>