<svg width="12" height="10" xmlns="http://www.w3.org/2000/svg"><path d="M12 1.183c-.44.2-.916.338-1.414.399A2.533 2.533 0 0 0 11.67.184c-.476.29-1.003.5-1.567.612A2.429 2.429 0 0 0 8.308 0c-1.358 0-2.46 1.131-2.46 2.525 0 .199.022.39.062.575C3.863 2.994 2.051 1.99.835.462a2.556 2.556 0 0 0-.333 1.27c0 .875.435 1.65 1.094 2.1a2.378 2.378 0 0 1-1.112-.316v.03c0 1.225.849 2.246 1.973 2.48a2.48 2.48 0 0 1-1.113.042c.315 1.003 1.223 1.73 2.3 1.754A4.868 4.868 0 0 1 0 8.866 6.84 6.84 0 0 0 3.775 10c4.526 0 7.002-3.847 7.002-7.182l-.008-.327c.484-.357.901-.8 1.231-1.308z" fill="#FFF" fill-rule="evenodd"/></svg>